<?xml version="1.0" standalone="no"?><!DOCTYPE svg PUBLIC "-//W3C//DTD SVG 1.1//EN" "http://www.w3.org/Graphics/SVG/1.1/DTD/svg11.dtd"><svg t="1640224284753" class="icon" viewBox="0 0 1024 1024" version="1.1" xmlns="http://www.w3.org/2000/svg" p-id="1630" xmlns:xlink="http://www.w3.org/1999/xlink" width="16" height="16"><defs><style type="text/css"></style></defs><path d="M938.666667 243.2l-196.266667-166.4-55.466667 64 196.266667 166.4L938.666667 243.2zM337.066667 145.066667L281.6 81.066667 85.333333 243.2l55.466667 64 196.266667-162.133333zM533.333333 341.333333H469.333333v256l200.533334 123.733334 34.133333-51.2-170.666667-102.4V341.333333zM512 170.666667c-213.333333 0-384 170.666667-384 384s170.666667 384 384 384 384-170.666667 384-384-170.666667-384-384-384z m0 682.666666c-166.4 0-298.666667-132.266667-298.666667-298.666666s132.266667-298.666667 298.666667-298.666667 298.666667 132.266667 298.666667 298.666667-132.266667 298.666667-298.666667 298.666666z" p-id="1631"></path></svg>