<?xml version="1.0" standalone="no"?><!DOCTYPE svg PUBLIC "-//W3C//DTD SVG 1.1//EN" "http://www.w3.org/Graphics/SVG/1.1/DTD/svg11.dtd"><svg t="1642121854968" class="icon" viewBox="0 0 1024 1024" version="1.1" xmlns="http://www.w3.org/2000/svg" p-id="3435" xmlns:xlink="http://www.w3.org/1999/xlink" width="64" height="64"><defs><style type="text/css"></style></defs><path d="M345.289716 139.636364h232.727273a50.65697 50.65697 0 0 0 50.566465-50.566465v-1.887677a50.65697 50.65697 0 0 0-50.566465-50.553535h-232.727273A50.65697 50.65697 0 0 0 294.787898 87.182222v1.887677A50.540606 50.540606 0 0 0 345.289716 139.636364z" fill="#1afa29" p-id="3436"></path><path d="M450.016989 751.72202H248.630322V687.450505h218.013738c40.080808-101.986263 139.170909-174.312727 255.366464-174.312727a273.19596 273.19596 0 0 1 115.355152 25.716363V137.050505a70.878384 70.878384 0 0 0-70.95596-70.94303h-91.694545V67.232323a96.672323 96.672323 0 0 1-96.672323 96.659394h-232.727273A96.659394 96.659394 0 0 1 248.630322 67.232323v-1.021414H156.935777A70.865455 70.865455 0 0 0 85.979817 137.050505v704.129293a70.878384 70.878384 0 0 0 70.95596 70.95596h320.646465a271.851313 271.851313 0 0 1-30.164041-124.599596 275.833535 275.833535 0 0 1 2.598788-35.814142zM248.630322 332.282828h425.903839v64.271515H248.630322z m0 177.55798h223.844849v64.271515H248.630322z" fill="#1afa29" p-id="3437"></path><path d="M718.868706 549.094141a219.138586 219.138586 0 1 0 219.151515 219.138586A219.138586 219.138586 0 0 0 718.868706 549.094141z m25.858586 247.583031v129.292929h-51.717172v-129.292929H563.717191v-51.717172h129.292929v-129.292929h51.717172v129.292929h129.292929v51.717172z" fill="#1afa29" p-id="3438"></path></svg>