<?xml version="1.0" standalone="no"?><!DOCTYPE svg PUBLIC "-//W3C//DTD SVG 1.1//EN" "http://www.w3.org/Graphics/SVG/1.1/DTD/svg11.dtd"><svg t="1640224504158" class="icon" viewBox="0 0 1024 1024" version="1.1" xmlns="http://www.w3.org/2000/svg" p-id="1895" xmlns:xlink="http://www.w3.org/1999/xlink" width="16" height="16"><defs><style type="text/css"></style></defs><path d="M865.9 385.9c-56.3 0-103.6 37.4-119.7 88.5H549.6V277.8c51.1-16.1 88.5-63.4 88.5-119.7C638.1 88.6 581.5 32 512 32S385.9 88.6 385.9 158.1c0 56.3 37.4 103.6 88.5 119.7v196.6H277.8c-16.1-51.1-63.4-88.5-119.7-88.5C88.6 385.9 32 442.5 32 512s56.6 126.1 126.1 126.1c56.3 0 103.6-37.4 119.7-88.5h196.6v196.6c-51.1 16.1-88.5 63.4-88.5 119.7 0 69.5 56.6 126.1 126.1 126.1s126.1-56.6 126.1-126.1c0-56.3-37.4-103.6-88.5-119.7V549.6h196.6c16.1 51.1 63.4 88.5 119.7 88.5 69.5 0 126.1-56.6 126.1-126.1s-56.6-126.1-126.1-126.1zM512 107.2c28.1 0 50.9 22.8 50.9 50.9S540.1 209 512 209c-28.1 0-50.9-22.8-50.9-50.9s22.9-50.9 50.9-50.9zM158.1 562.9c-28.1 0-50.9-22.8-50.9-50.9 0-28.1 22.8-50.9 50.9-50.9S209 484 209 512c0 28.1-22.9 50.9-50.9 50.9zM512 916.8c-28.1 0-50.9-22.9-50.9-50.9S483.9 815 512 815c28.1 0 50.9 22.9 50.9 50.9 0 28.1-22.8 50.9-50.9 50.9z m353.9-353.9c-28 0-50.9-22.8-50.9-50.9 0-28.1 22.9-50.9 50.9-50.9s50.9 22.8 50.9 50.9c0 28.1-22.8 50.9-50.9 50.9z" fill="#707070" p-id="1896"></path><path d="M735.7 288.3c14.6 14.6 27.9 30.8 39.4 48 7.3 10.8 19.1 16.7 31.3 16.7 7.2 0 14.5-2.1 20.9-6.4 17.3-11.6 21.9-34.9 10.3-52.2-14.2-21.2-30.6-41.2-48.7-59.3-18-18-38-34.4-59.3-48.7-17.2-11.6-40.6-6.9-52.1 10.3-11.6 17.3-7 40.6 10.3 52.2 17.2 11.6 33.3 24.8 47.9 39.4zM217.6 353c12.1 0 24-5.9 31.3-16.7 11.6-17.3 24.8-33.4 39.4-48 14.5-14.6 30.7-27.8 48-39.4 17.2-11.6 21.8-34.9 10.3-52.2-11.6-17.3-35-21.9-52.2-10.3-21.3 14.3-41.3 30.7-59.2 48.7-18 18-34.4 37.9-48.7 59.3-11.6 17.3-7 40.6 10.3 52.2 6.4 4.3 13.7 6.4 20.8 6.4zM288.3 735.7c-14.6-14.6-27.8-30.8-39.4-48-11.5-17.3-34.9-21.9-52.2-10.3-17.3 11.5-21.9 34.9-10.3 52.1 14.3 21.3 30.7 41.3 48.7 59.4 18.1 18.1 38 34.4 59.3 48.6 6.4 4.3 13.7 6.4 20.9 6.4 12.1 0 24-5.8 31.3-16.7 11.6-17.2 6.9-40.6-10.3-52.1-17.2-11.5-33.3-24.8-48-39.4zM775.1 687.7c-11.5 17.2-24.8 33.3-39.4 48-14.7 14.6-30.8 27.9-48 39.4s-21.9 34.9-10.3 52.1c7.2 10.8 19.1 16.7 31.3 16.7 7.2 0 14.4-2 20.9-6.4 21.2-14.2 41.2-30.5 59.4-48.7 18.1-18.1 34.5-38.1 48.6-59.3 11.6-17.3 6.9-40.6-10.3-52.1-17.4-11.6-40.7-6.9-52.2 10.3z" fill="#707070" p-id="1897"></path></svg>