<?xml version="1.0" standalone="no"?><!DOCTYPE svg PUBLIC "-//W3C//DTD SVG 1.1//EN" "http://www.w3.org/Graphics/SVG/1.1/DTD/svg11.dtd"><svg t="1640223848278" class="icon" viewBox="0 0 1024 1024" version="1.1" xmlns="http://www.w3.org/2000/svg" p-id="1104" xmlns:xlink="http://www.w3.org/1999/xlink" width="16" height="16"><defs><style type="text/css"></style></defs><path d="M809.984 854.016l0-470.016-596.010667 0 0 470.016 596.010667 0zM809.984 169.984q34.005333 0 59.989333 25.984t25.984 59.989333l0 598.016q0 34.005333-25.984 59.008t-59.989333 25.002667l-596.010667 0q-36.010667 0-61.013333-25.002667t-25.002667-59.008l0-598.016q0-34.005333 25.002667-59.989333t61.013333-25.984l41.984 0 0-84.010667 86.016 0 0 84.010667 340.010667 0 0-84.010667 86.016 0 0 84.010667 41.984 0zM726.016 470.016l0 84.010667-86.016 0 0-84.010667 86.016 0zM553.984 470.016l0 84.010667-84.010667 0 0-84.010667 84.010667 0zM384 470.016l0 84.010667-86.016 0 0-84.010667 86.016 0z" p-id="1105"></path></svg>