<?xml version="1.0" standalone="no"?><!DOCTYPE svg PUBLIC "-//W3C//DTD SVG 1.1//EN" "http://www.w3.org/Graphics/SVG/1.1/DTD/svg11.dtd"><svg t="1640223756680" class="icon" viewBox="0 0 1024 1024" version="1.1" xmlns="http://www.w3.org/2000/svg" p-id="972" xmlns:xlink="http://www.w3.org/1999/xlink" width="16" height="16"><defs><style type="text/css"></style></defs><path d="M625.7664 886.6816V739.5328h147.1488L625.7664 886.6816z m-398.2336 23.552V113.7664h568.9344v568.9344H625.7664c-31.4368 0-56.9344 25.3952-56.9344 56.9344V910.336l-341.2992-0.1024zM796.4672 56.9344H227.5328c-31.4368 0-56.9344 25.3952-56.9344 56.9344V910.336c0 31.4368 25.3952 56.9344 56.9344 56.9344h374.6816c15.0528 0 29.5936-6.0416 40.2432-16.6912l40.2432-40.2432 113.7664-113.7664 40.2432-40.2432c10.6496-10.6496 16.6912-25.1904 16.6912-40.2432V113.7664c-0.1024-31.4368-25.4976-56.832-56.9344-56.832zM654.2336 227.5328H369.7664c-15.6672 0-28.4672 12.6976-28.4672 28.4672 0 15.6672 12.6976 28.4672 28.4672 28.4672h284.4672c15.6672 0 28.4672-12.6976 28.4672-28.4672 0-15.6672-12.8-28.4672-28.4672-28.4672m0 113.7664H369.7664c-15.6672 0-28.4672 12.6976-28.4672 28.4672 0 15.6672 12.6976 28.4672 28.4672 28.4672h284.4672c15.6672 0 28.4672-12.6976 28.4672-28.4672 0-15.6672-12.8-28.4672-28.4672-28.4672M540.4672 455.0656H369.7664c-15.6672 0-28.4672 12.6976-28.4672 28.4672 0 15.6672 12.6976 28.4672 28.4672 28.4672h170.7008c15.6672 0 28.4672-12.6976 28.4672-28.4672 0-15.6672-12.8-28.4672-28.4672-28.4672" fill="#323233" p-id="973"></path></svg>