<?xml version="1.0" standalone="no"?><!DOCTYPE svg PUBLIC "-//W3C//DTD SVG 1.1//EN" "http://www.w3.org/Graphics/SVG/1.1/DTD/svg11.dtd"><svg t="1641275588561" class="icon" viewBox="0 0 1024 1024" version="1.1" xmlns="http://www.w3.org/2000/svg" p-id="3046" xmlns:xlink="http://www.w3.org/1999/xlink" width="128" height="128"><defs><style type="text/css"></style></defs><path d="M932.092062 1024H91.907938A92.002462 92.002462 0 0 1 0 932.092062V91.907938A92.033969 92.033969 0 0 1 91.907938 0h367.568739a39.384615 39.384615 0 0 1 0 78.769231H91.907938a13.138708 13.138708 0 0 0-13.138707 13.138707v840.184124a13.138708 13.138708 0 0 0 13.138707 13.138707h840.184124a13.170215 13.170215 0 0 0 13.138707-13.138707V564.523323a39.384615 39.384615 0 0 1 78.769231 0v367.568739a92.002462 92.002462 0 0 1-91.907938 91.907938z" fill="#FF8400" p-id="3047"></path><path d="M443.880369 810.850462H252.565662a39.384615 39.384615 0 0 1-39.384616-39.384616v-190.337969a39.3216 39.3216 0 0 1 11.531816-27.8528L765.762954 11.563323a40.5504 40.5504 0 0 1 55.7056 0l190.999631 191.062646a39.416123 39.416123 0 0 1 0 55.7056l-540.703508 540.987077a39.416123 39.416123 0 0 1-27.884308 11.531816z m-151.930092-78.769231h135.483077L928.783754 230.447262l-135.294031-135.325539L291.824246 597.417354z" fill="#FF8400" p-id="3048"></path></svg>