<?xml version="1.0" standalone="no"?><!DOCTYPE svg PUBLIC "-//W3C//DTD SVG 1.1//EN" "http://www.w3.org/Graphics/SVG/1.1/DTD/svg11.dtd"><svg t="1661236480712" class="icon" viewBox="0 0 1024 1024" version="1.1" xmlns="http://www.w3.org/2000/svg" p-id="1568" width="32" height="32" xmlns:xlink="http://www.w3.org/1999/xlink"><defs><style type="text/css">@font-face { font-family: feedback-iconfont; src: url("//at.alicdn.com/t/font_1031158_u69w8yhxdu.woff2?t=1630033759944") format("woff2"), url("//at.alicdn.com/t/font_1031158_u69w8yhxdu.woff?t=1630033759944") format("woff"), url("//at.alicdn.com/t/font_1031158_u69w8yhxdu.ttf?t=1630033759944") format("truetype"); }
</style></defs><path d="M768 128 192 128C121.344 128 64 185.344 64 256l0 576c0 70.656 57.344 128 128 128l576 0c70.656 0 128-57.344 128-128L896 256C896 185.344 838.656 128 768 128zM832.768 870.4c-3.904 20.736-15.424 29.12-34.752 24.96-135.232-43.712-238.656-94.656-310.144-152.832-119.744 81.088-228.864 131.968-327.424 152.832C144.96 897.344 134.4 889.152 128.576 870.4c-3.904-20.8 1.92-34.304 17.408-40.576 106.176-20.736 200.896-64.448 284.032-131.008C373.888 636.352 320.832 545.92 270.592 427.392c-28.928 31.232-57.92 56.192-86.912 74.88-19.328 12.48-34.752 12.48-46.4 0C125.696 483.584 127.552 466.944 143.04 452.352c94.656-68.608 162.24-148.672 202.88-240.192 9.6-18.752 24.128-22.848 43.456-12.48C404.8 212.16 407.744 228.8 398.08 249.6c-15.488 33.28-40.576 73.792-75.328 121.6 19.328 95.68 71.424 189.312 156.48 280.768 83.008-81.088 136.192-179.904 159.36-296.32C615.424 328.64 581.632 293.312 537.216 249.6 523.648 235.072 522.688 219.52 534.272 202.816 547.84 188.288 562.24 187.2 577.728 199.68c69.568 64.512 148.736 151.808 237.632 262.016 11.648 16.704 10.624 32.32-2.88 46.784-15.488 12.48-30.016 11.52-43.52-3.136-7.68-10.368-21.248-27.008-40.512-49.856-19.392-25.024-32.96-41.536-40.64-49.92-30.912 118.592-82.112 216.32-153.6 293.248 88.896 62.4 180.672 105.024 275.392 127.872C828.864 832.96 836.608 847.424 832.768 870.4z" p-id="1569" fill="#1296db"></path></svg>