<?xml version="1.0" standalone="no"?><!DOCTYPE svg PUBLIC "-//W3C//DTD SVG 1.1//EN" "http://www.w3.org/Graphics/SVG/1.1/DTD/svg11.dtd"><svg t="1641275749838" class="icon" viewBox="0 0 1024 1024" version="1.1" xmlns="http://www.w3.org/2000/svg" p-id="9761" xmlns:xlink="http://www.w3.org/1999/xlink" width="128" height="128"><defs><style type="text/css"></style></defs><path d="M814.6 701l-183.6-308.4v-112.2c0.8-0.2 1.6-0.2 2.4-0.4 35.6-7.8 61.2-42.8 61.2-83 0-46.6-34.2-84.6-76.4-84.6H405.2c-42.2 0-76.4 38-76.4 84.6 0 40.2 25.8 75 61.2 83 0.8 0.2 1.6 0.4 2.4 0.4v112.2l-183.6 308.4c-26.6 44.4-30.2 88.2-10.4 123.2 20 35.2 62 55.4 115.4 55.4h395.4c53.4 0 95.4-20.2 115.4-55.4 20.2-35 16.4-78.6-10-123.2zM389.2 197.2c0-14.4 8.4-24.2 16-24.2h213c7.6 0 16 10 16 24.2 0 11.8-5.8 20.4-11.8 23.2h-21.6c-16.6 0-30.2 13.6-30.2 30.2v150.4c0 5.4 1.4 10.8 4.2 15.4l114.2 191.8H334.6l32-53.8c2.2 0.6 4.6 0.8 7 0.8h97.2c16.6 0 30.2-13.6 30.2-30.2s-13.6-30.2-30.2-30.2H402l29.2-49h39.4c16.6 0 30.2-13.6 30.2-30.2s-13.6-30.2-30.2-30.2h-17.8v-49h17.8c16.6 0 30.2-13.6 30.2-30.2s-13.6-30.2-30.2-30.2h-17.8v-25.4c0-16.6-13.6-30.2-30.2-30.2h-21.6c-6-2.8-11.8-11.6-11.8-23.2z m383.2 597c-9 15.8-31.8 24.8-62.8 24.8H314c-31 0-54-9-62.8-24.8-8.6-15-5-37.6 9.8-62.4l37.6-63.2h426.4l37.6 63.2c14.8 24.8 18.2 47.6 9.8 62.4z" p-id="9762" fill="#0089FF"></path></svg>