<?xml version="1.0" standalone="no"?><!DOCTYPE svg PUBLIC "-//W3C//DTD SVG 1.1//EN" "http://www.w3.org/Graphics/SVG/1.1/DTD/svg11.dtd"><svg t="1642493261276" class="icon" viewBox="0 0 1024 1024" version="1.1" xmlns="http://www.w3.org/2000/svg" p-id="1981" xmlns:xlink="http://www.w3.org/1999/xlink" width="64" height="64"><defs><style type="text/css"></style></defs><path d="M512 43.872C243.808 43.872 24.384 263.296 24.384 531.488S243.808 1019.104 512 1019.104s487.616-219.424 487.616-487.616S780.192 43.872 512 43.872z m399.84 312.096L716.8 551.008V146.272c87.776 43.872 156.032 117.024 195.04 209.664zM351.072 531.52c0-87.776 73.152-160.928 160.928-160.928s160.928 73.152 160.928 160.928-73.152 160.928-160.928 160.928-160.928-73.152-160.928-160.928z m321.856-409.6v273.056c-4.864-9.76-14.624-14.624-19.52-19.52L390.08 112.128c39.008-9.76 82.88-19.52 126.784-19.52 53.632 0 107.264 9.76 156.032 29.248z m-336.48 4.864l195.04 195.04H126.752c48.768-87.776 121.92-156.032 209.664-195.04zM102.4 370.592h273.056l-287.68 287.68c-9.76-39.008-19.52-82.88-19.52-126.784 4.864-58.528 14.624-112.16 34.144-160.928z m9.76 336.448L307.2 512v399.84a418.752 418.752 0 0 1-195.04-204.8z m238.912 234.08v-273.056c4.864 9.76 14.624 14.624 19.52 19.52l263.328 263.328c-39.008 9.76-82.88 19.52-121.92 19.52-58.528 0-112.16-9.76-160.928-29.248z m336.48-9.76l-195.04-195.04h404.736c-48.768 87.776-121.92 156.032-209.664 195.04z m234.048-238.944h-273.056l287.68-287.68c9.76 39.008 19.52 82.88 19.52 126.784-4.864 58.528-14.624 112.16-34.144 160.928z" p-id="1982"></path></svg>