<?xml version="1.0" standalone="no"?><!DOCTYPE svg PUBLIC "-//W3C//DTD SVG 1.1//EN" "http://www.w3.org/Graphics/SVG/1.1/DTD/svg11.dtd"><svg t="1642748884189" class="icon" viewBox="0 0 1024 1024" version="1.1" xmlns="http://www.w3.org/2000/svg" p-id="3444" xmlns:xlink="http://www.w3.org/1999/xlink" width="64" height="64"><defs><style type="text/css"></style></defs><path d="M170.666667 196.266667h631.466666v85.333333h51.2v-51.2c0-47.786667-37.546667-85.333333-85.333333-85.333333H204.8c-47.786667 0-85.333333 37.546667-85.333333 85.333333v529.066667c0 47.786667 37.546667 85.333333 85.333333 85.333333h187.733333v-51.2H170.666667v-597.333333z m187.733333 256h-102.4v34.133333h102.4v-34.133333z m-119.466667 187.733333h119.466667v-34.133333h-119.466667v34.133333z m221.866667-324.266667H238.933333v34.133334h221.866667v-34.133334z m445.44 457.386667l-98.986667-98.986667c22.186667-35.84 35.84-78.506667 35.84-124.586666 0-128-104.106667-232.106667-233.813333-232.106667-128 0-233.813333 104.106667-233.813333 232.106667s104.106667 232.106667 233.813333 232.106666c46.08 0 87.04-13.653333 122.88-35.84l100.693333 98.986667c15.36 15.36 40.96 15.36 58.026667 0l15.36-15.36c15.36-15.36 15.36-40.96 0-56.32z m-296.96-20.48c-71.68 0-203.093333-69.973333-203.093333-203.093333 0-133.12 131.413333-203.093333 203.093333-203.093334s203.093333 76.8 203.093333 203.093334c-1.706667 126.293333-133.12 203.093333-203.093333 203.093333z" fill="" p-id="3445"></path></svg>