<?xml version="1.0" standalone="no"?><!DOCTYPE svg PUBLIC "-//W3C//DTD SVG 1.1//EN" "http://www.w3.org/Graphics/SVG/1.1/DTD/svg11.dtd"><svg t="1640224738187" class="icon" viewBox="0 0 1024 1024" version="1.1" xmlns="http://www.w3.org/2000/svg" p-id="2026" xmlns:xlink="http://www.w3.org/1999/xlink" width="16" height="16"><defs><style type="text/css"></style></defs><path d="M108.864 173.312a86.272 86.272 0 0 0-63.637333 64.32c-3.776 16.042667-3.776 447.36 0 463.402667a85.76 85.76 0 0 0 64.405333 64.405333c8.469333 1.984 24.746667 2.517333 78.528 2.538667L256 768v44.906667c0 53.098667 0.938667 58.154667 12.928 70.165333 7.808 7.786667 19.605333 12.928 29.738667 12.928 10.133333 0 21.930667-5.141333 29.738666-12.928 11.989333-12.010667 12.928-17.066667 12.928-70.165333V768h341.333334v44.906667c0 53.098667 0.938667 58.154667 12.928 70.165333 7.808 7.786667 19.605333 12.928 29.738666 12.928 10.133333 0 21.930667-5.141333 29.738667-12.928 11.989333-12.010667 12.928-17.066667 12.928-70.058667v-44.821333l72.96-0.533333c72.213333-0.554667 73.066667-0.597333 83.2-4.608 21.546667-8.554667 37.589333-22.698667 47.125333-41.536 10.389333-20.544 10.005333-10.410667 10.005334-252.181334s0.384-231.637333-10.005334-252.181333c-9.514667-18.816-25.536-32.938667-47.125333-41.557333l-10.24-4.074667-397.653333-0.298667c-334.784-0.234667-399.189333 0.085333-407.402667 2.090667M896 469.333333v213.333334H128V256h768v213.333333m-262.72-146.730666c-45.546667 9.557333-83.968 38.784-104.277333 79.317333-12.437333 24.853333-15.808 39.210667-15.808 67.413333s3.370667 42.56 15.808 67.413334c17.706667 35.328 48.405333 61.653333 87.104 74.645333 15.701333 5.269333 17.130667 5.461333 45.226666 5.461333 28.096 0 29.525333-0.192 45.226667-5.461333a152.789333 152.789333 0 0 0 99.264-105.365333c5.205333-19.456 5.184-54.08-0.042667-73.386667-13.696-50.496-50.112-89.109333-99.221333-105.237333-14.613333-4.8-18.645333-5.376-40.96-5.845334-13.610667-0.298667-28.16 0.192-32.32 1.045334m-395.136 44.437333c-16.085333 8.021333-23.850667 20.48-23.850667 38.293333 0 13.952 3.818667 22.805333 13.504 31.317334 12.096 10.602667 11.157333 10.496 92.202667 10.496s80.106667 0.106667 92.202667-10.496c9.685333-8.512 13.504-17.365333 13.504-31.317334s-3.818667-22.805333-13.504-31.317333c-12.096-10.624-11.072-10.496-92.842667-10.432-70.656 0.064-74.794667 0.234667-81.216 3.456m445.376 42.218667a67.285333 67.285333 0 0 1 36.522667 34.389333c3.797333 8.128 4.437333 11.776 4.437333 25.728 0 14.912-0.469333 17.173333-5.589333 27.605333-24.042667 48.832-92.928 47.786667-116.16-1.749333-3.925333-8.362667-4.544-11.904-4.544-25.898667 0-13.994667 0.618667-17.536 4.544-25.898666 8.682667-18.538667 28.245333-33.962667 47.189333-37.226667 9.984-1.728 24.661333-0.405333 33.6 3.050667m-445.376 85.781333c-16.085333 8.021333-23.850667 20.48-23.850667 38.293333 0 13.952 3.818667 22.805333 13.504 31.317334 11.712 10.261333 13.226667 10.496 70.869334 10.496s59.157333-0.234667 70.869333-10.496c9.685333-8.512 13.504-17.365333 13.504-31.317334s-3.818667-22.805333-13.504-31.317333c-11.733333-10.304-13.162667-10.496-71.509333-10.432-49.408 0.064-53.589333 0.298667-59.882667 3.456" p-id="2027"></path></svg>