<?xml version="1.0" standalone="no"?><!DOCTYPE svg PUBLIC "-//W3C//DTD SVG 1.1//EN" "http://www.w3.org/Graphics/SVG/1.1/DTD/svg11.dtd"><svg t="1641361382732" class="icon" viewBox="0 0 1024 1024" version="1.1" xmlns="http://www.w3.org/2000/svg" p-id="3128" xmlns:xlink="http://www.w3.org/1999/xlink" width="128" height="128"><defs><style type="text/css"></style></defs><path d="M346 156.8h336.2v50H346zM804.8 872.2h-583c-23.4 0-44.3-9.1-55.9-24.4-8.4-11.1-11.1-24.8-7.5-37.7l1-3.7 229.8-352.8 41.9 27.3-221 339.3c2.8 1.1 6.7 2 11.7 2h583c4.9 0 8.8-0.9 11.6-2l-228-342.8 41.6-27.7L867 806l1.1 3.7c3.8 12.9 1.1 26.7-7.3 37.9-11.6 15.4-32.5 24.6-56 24.6z" p-id="3129" fill="#ffffff"></path><path d="M380.5 485.4l50-3.4V196.9l-50 3.4zM588.2 193.2v285.1l50-2.3V190.9zM565 556.7l134.7 198.5c2.6 9.1-8.2 17.5-22.5 17.5H343c-14.3 0-25.1-8.3-22.5-17.4L451 554.8" p-id="3130" fill="#ffffff"></path></svg>