<?xml version="1.0" standalone="no"?><!DOCTYPE svg PUBLIC "-//W3C//DTD SVG 1.1//EN" "http://www.w3.org/Graphics/SVG/1.1/DTD/svg11.dtd"><svg t="1661238129542" class="icon" viewBox="0 0 1024 1024" version="1.1" xmlns="http://www.w3.org/2000/svg" p-id="2924" xmlns:xlink="http://www.w3.org/1999/xlink" width="48" height="48"><defs><style type="text/css">@font-face { font-family: feedback-iconfont; src: url("//at.alicdn.com/t/font_1031158_u69w8yhxdu.woff2?t=1630033759944") format("woff2"), url("//at.alicdn.com/t/font_1031158_u69w8yhxdu.woff?t=1630033759944") format("woff"), url("//at.alicdn.com/t/font_1031158_u69w8yhxdu.ttf?t=1630033759944") format("truetype"); }
</style></defs><path d="M768 128 192 128C121.344 128 64 185.344 64 256l0 576c0 70.656 57.344 128 128 128l576 0c70.656 0 128-57.344 128-128L896 256C896 185.344 838.656 128 768 128zM801.472 574.272 575.424 574.272c25.408 129.856 12.672 254.208-38.208 289.088-48.96 40.704-133.12 43.584-252.48 8.704-15.68-5.76-20.544-18.368-14.656-37.76 7.808-13.568 19.584-18.368 35.264-14.528 88.064 21.248 148.736 22.208 182.016 2.88 41.152-25.216 48.96-136 23.488-248.384L158.528 574.272c-17.6-1.92-27.456-12.608-29.376-32 1.92-17.344 11.776-27.136 29.376-29.056L448 512c0 0-22.336-59.136-22.336-44.032C406.144 452.48 472.704 410.88 625.344 343.04c15.68-5.824 22.528-11.648 20.544-17.408-1.92-3.904-11.712-5.824-29.376-5.824L231.936 319.808c-17.6-1.92-27.52-12.544-29.44-32 3.968-21.312 14.72-32 32.384-32l460.928 0c29.376 0 48.96 11.712 58.752 34.944 5.824 25.216-2.944 45.504-26.432 60.992-49.024 27.2-102.784 55.232-161.472 84.288C530.24 454.784 508.48 467.072 501.376 472.96 505.088 480.448 512 512 512 512l289.472 1.216c17.6 1.92 27.392 11.712 29.376 29.056C828.864 561.6 819.136 572.288 801.472 574.272z" p-id="2925" fill="#1afa29"></path></svg>