<?xml version="1.0" standalone="no"?><!DOCTYPE svg PUBLIC "-//W3C//DTD SVG 1.1//EN" "http://www.w3.org/Graphics/SVG/1.1/DTD/svg11.dtd"><svg t="1640223975833" class="icon" viewBox="0 0 1024 1024" version="1.1" xmlns="http://www.w3.org/2000/svg" p-id="1368" xmlns:xlink="http://www.w3.org/1999/xlink" width="16" height="16"><defs><style type="text/css"></style></defs><path d="M426.666667 170.666667a128 128 0 1 1 76.202666 117.077333l-132.864 166.016c2.56 5.034667 4.821333 10.24 6.698667 15.573333h270.592a128.042667 128.042667 0 1 1 68.864 159.744l-132.821333 165.973334a128 128 0 1 1-62.208-58.837334l132.864-165.973333A127.232 127.232 0 0 1 647.253333 554.666667H376.704a128.042667 128.042667 0 1 1-68.864-159.744l132.821333-166.016A127.445333 127.445333 0 0 1 426.666667 170.666667z m128-42.666667a42.666667 42.666667 0 1 0 0 85.333333 42.666667 42.666667 0 0 0 0-85.333333z m-85.333334 682.666667a42.666667 42.666667 0 1 0 0 85.333333 42.666667 42.666667 0 0 0 0-85.333333z m256-298.666667a42.666667 42.666667 0 1 1 85.333334 0 42.666667 42.666667 0 0 1-85.333334 0zM298.666667 512a42.666667 42.666667 0 1 0-85.333334 0 42.666667 42.666667 0 0 0 85.333334 0z" fill="#000000" fill-opacity=".85" p-id="1369"></path></svg>