<svg xmlns="http://www.w3.org/2000/svg" xmlns:xlink="http://www.w3.org/1999/xlink" viewBox="0 0 2000 2000"><defs><style>.cls-1{mask:url(#mask);filter:url(#luminosity-noclip-2);}.cls-2{mix-blend-mode:multiply;fill:url(#linear-gradient);}.cls-3{isolation:isolate;}.cls-4{fill:url(#铃琨眄_沭噤桢眚_35);}.cls-5{fill:#6fcef6;}.cls-30,.cls-6{fill:#001b8d;}.cls-7{fill:#00379f;}.cls-15,.cls-26,.cls-8{mix-blend-mode:color-dodge;}.cls-8{fill:url(#铃琨眄_沭噤桢眚_14);}.cls-14,.cls-23,.cls-25,.cls-28,.cls-9{fill:#58fffe;}.cls-10{fill:#fff;}.cls-11{fill:#27d9f9;}.cls-12,.cls-31{fill:#58ffff;}.cls-13,.cls-26{fill:#005aff;}.cls-14,.cls-22,.cls-23,.cls-28{opacity:0.5;}.cls-14{mix-blend-mode:saturation;}.cls-15{fill:url(#linear-gradient-2);}.cls-16{fill:#db5d9f;}.cls-17{fill:#ffb4d9;}.cls-18{fill:#0841f9;}.cls-19,.cls-20,.cls-24,.cls-29{fill:none;}.cls-19,.cls-24,.cls-29{stroke:#58fffe;}.cls-19,.cls-29{stroke-miterlimit:10;}.cls-19,.cls-24{stroke-width:3.05px;}.cls-20{stroke:#fff;stroke-width:6.11px;}.cls-20,.cls-24{stroke-linecap:round;stroke-linejoin:round;}.cls-21{opacity:0.8;mix-blend-mode:overlay;}.cls-25,.cls-28,.cls-34{mix-blend-mode:soft-light;}.cls-25{font-size:23.13px;font-family:zihun95hao-shoukesong, zihun95hao shoukesong;}.cls-27{font-size:45.8px;fill:#1341c4;font-family:SourceHanSansCN-Normal-GBpc-EUC-H, Source Han Sans CN;}.cls-29{stroke-width:2.39px;}.cls-30,.cls-31{fill-rule:evenodd;}.cls-32{mask:url(#mask-2);}.cls-33{fill:url(#linear-gradient-3);}.cls-34{fill:url(#linear-gradient-4);}.cls-35{filter:url(#luminosity-noclip);}</style><filter id="luminosity-noclip" x="1482.3" y="-9192" width="443.48" height="32766" filterUnits="userSpaceOnUse" color-interpolation-filters="sRGB"><feFlood flood-color="#fff" result="bg"/><feBlend in="SourceGraphic" in2="bg"/></filter><mask id="mask" x="1482.3" y="-9192" width="443.48" height="32766" maskUnits="userSpaceOnUse"><g class="cls-35"/></mask><linearGradient id="linear-gradient" x1="1403.87" y1="1058.74" x2="1872.65" y2="1058.74" gradientTransform="matrix(0.49, -0.6, 0.83, 1.03, 23.29, 679.56)" gradientUnits="userSpaceOnUse"><stop offset="0"/><stop offset="0.01" stop-color="#131313"/><stop offset="0.05" stop-color="#444"/><stop offset="0.09" stop-color="#717171"/><stop offset="0.12" stop-color="#979797"/><stop offset="0.17" stop-color="#b7b7b7"/><stop offset="0.21" stop-color="#d2d2d2"/><stop offset="0.26" stop-color="#e6e6e6"/><stop offset="0.32" stop-color="#f4f4f4"/><stop offset="0.39" stop-color="#fcfcfc"/><stop offset="0.5" stop-color="#fff"/><stop offset="0.64" stop-color="#fdfdfd"/><stop offset="0.71" stop-color="#f5f5f5"/><stop offset="0.76" stop-color="#e8e8e8"/><stop offset="0.81" stop-color="#d6d6d6"/><stop offset="0.85" stop-color="#bebebe"/><stop offset="0.89" stop-color="#a0a0a0"/><stop offset="0.92" stop-color="#7c7c7c"/><stop offset="0.95" stop-color="#535353"/><stop offset="0.98" stop-color="#262626"/><stop offset="1"/></linearGradient><linearGradient id="铃琨眄_沭噤桢眚_35" x1="117.6" y1="930.49" x2="325.24" y2="908.66" gradientTransform="matrix(0.99, -0.02, -0.1, 1.01, 142.54, 32.78)" gradientUnits="userSpaceOnUse"><stop offset="0" stop-color="#0056e5"/><stop offset="0.07" stop-color="#136ee9"/><stop offset="0.2" stop-color="#3293f0"/><stop offset="0.34" stop-color="#4bb2f5"/><stop offset="0.48" stop-color="#5ecafa"/><stop offset="0.63" stop-color="#6cdbfd"/><stop offset="0.8" stop-color="#74e5fe"/><stop offset="1" stop-color="#77e8ff"/></linearGradient><radialGradient id="铃琨眄_沭噤桢眚_14" cx="605.92" cy="631.44" r="51.32" gradientTransform="matrix(0.95, -0.03, 0.03, 0.8, -177.34, 214.75)" gradientUnits="userSpaceOnUse"><stop offset="0" stop-color="#02689b"/><stop offset="1"/></radialGradient><linearGradient id="linear-gradient-2" x1="240.49" y1="811.93" x2="678.77" y2="769.17" gradientUnits="userSpaceOnUse"><stop offset="0"/><stop offset="1" stop-color="#02b3c4"/></linearGradient><filter id="luminosity-noclip-2" x="1482.3" y="774.38" width="443.48" height="16.78" filterUnits="userSpaceOnUse" color-interpolation-filters="sRGB"><feFlood flood-color="#fff" result="bg"/><feBlend in="SourceGraphic" in2="bg"/></filter><mask id="mask-2" x="1482.3" y="774.38" width="443.48" height="16.78" maskUnits="userSpaceOnUse"><g class="cls-1"><polygon class="cls-2" points="1925.78 774.38 1925.6 789.21 1482.3 791.16 1482.48 776.34 1925.78 774.38"/></g></mask><linearGradient id="linear-gradient-3" x1="1403.87" y1="1058.74" x2="1872.65" y2="1058.74" gradientTransform="matrix(0.49, -0.6, 0.83, 1.03, 23.29, 679.56)" gradientUnits="userSpaceOnUse"><stop offset="0" stop-color="#fff"/><stop offset="0.01" stop-color="#ecfffb"/><stop offset="0.05" stop-color="#bbfff0"/><stop offset="0.09" stop-color="#8effe7"/><stop offset="0.12" stop-color="#68ffde"/><stop offset="0.17" stop-color="#48ffd7"/><stop offset="0.21" stop-color="#2dffd2"/><stop offset="0.26" stop-color="#19ffcd"/><stop offset="0.32" stop-color="#0bffca"/><stop offset="0.39" stop-color="#03ffc9"/><stop offset="0.5" stop-color="#00ffc8"/><stop offset="0.64" stop-color="#02ffc8"/><stop offset="0.71" stop-color="#0affca"/><stop offset="0.76" stop-color="#17ffcd"/><stop offset="0.81" stop-color="#29ffd1"/><stop offset="0.85" stop-color="#41ffd6"/><stop offset="0.89" stop-color="#5fffdd"/><stop offset="0.92" stop-color="#83ffe4"/><stop offset="0.95" stop-color="#acffed"/><stop offset="0.98" stop-color="#d9fff7"/><stop offset="1" stop-color="#fff"/></linearGradient><linearGradient id="linear-gradient-4" x1="1753.84" y1="1038.9" x2="1683.34" y2="597.93" gradientTransform="matrix(1, 0, 0, 1, 0, 0)" xlink:href="#linear-gradient-3"/></defs><title>扁平科技电脑后台</title><g class="cls-3"><g id="图层_1" data-name="图层 1"><path class="cls-4" d="M271.77,461c-41.21,3.32-103.41,27.78-108.61,53.86L256,1410.46c12.32,29.5,80.09,29.86,117.34,26.93Z"/><path class="cls-5" d="M1273,1404.24l-902.92,35.48c-46.71,1.85-85.76-14.53-88.14-36.93L187.65,507.21c-2.76-25.79,43.7-47.93,97-46.31l858.72,26.24c40.69,1.27,72.25,16.22,75.52,35.85l3.42,20.64,42.25,254.58L1303.3,1031l17.16,103.36,36.92,222.42C1361.37,1380.58,1322.71,1402.29,1273,1404.24Z"/><path class="cls-6" d="M1301.78,1353.76a131.2,131.2,0,0,1-17.43,1.69l-892.51,27.46c-33.06,1-60.46-10.22-62.08-25.5l-2.92-26.58L240,536.12c-.67-6.2,2.95-12.14,9.58-17.14h.07a127.79,127.79,0,0,1,24.47-1.72L1123,536.63c29.43.66,52.46,11,54.86,24.7l127.88,742.05,5.57,32.41C1312.33,1342.26,1308.74,1348.49,1301.78,1353.76Z"/><path class="cls-7" d="M1302.81,1354.31a132.55,132.55,0,0,1-17.4,1.65l-891.2,27c-33,1-60.37-10-62-25l-2.91-26.08,977.41-26.94,5.55,31.81C1313.35,1343,1309.76,1349.13,1302.81,1354.31Z"/><path class="cls-8" d="M462.78,699.44c.76,22.7-20.39,41.84-47.26,42.75s-49.27-16.76-50-39.46,20.39-41.84,47.26-42.75S462,676.74,462.78,699.44Z"/><polygon class="cls-9" points="880.77 1148.3 880.59 1145.83 968.25 1139.51 903.13 722.61 905.57 722.23 971.1 1141.78 880.77 1148.3"/><path class="cls-10" d="M646.64,899.31a2.71,2.71,0,0,1-2-4.48l7.71-8.9-10-9a2.71,2.71,0,1,1,3.63-4l14,12.58-11.19,12.92A2.68,2.68,0,0,1,646.64,899.31Z"/><path class="cls-9" d="M429.58,700.27c1.78,10-3.69,18.54-12.22,19s-16.89-7.32-18.68-17.36,3.69-18.53,12.22-19S427.8,690.24,429.58,700.27Z"/><path class="cls-9" d="M418.14,723.66c-15.12.79-24.81,15.85-21.66,33.64l55-.5C448.37,739,433.27,722.86,418.14,723.66Z"/><polyline class="cls-5" points="674.93 1427.74 629.13 1535.02 913.17 1522.8 965.11 1416.34"/><path class="cls-7" d="M559.93,1598.24c-37.12-8.55-68.12-27.39-68.88-41.87s29.74-27.85,67.79-29.72l388.09-19.06c38.05-1.87,99.78,2.52,137.18,9.74l150,29c37.4,7.23,66.63,22.3,65,33.5s-33.5,13.7-70.71,5.56l-145.77-31.89c-37.22-8.14-98.8-13.31-136.84-11.48l-344.83,16.59c-38,1.83-38.66,9.61-1.34,17.28l153.86,31.66c37.31,7.68,67.84,22.27,67.84,32.43s-30.37,11.47-67.49,2.92Z"/><path class="cls-11" d="M1172.48,1221.73c1.44,13.71-8.13,25.08-21.37,25.4l-525.77,12.74c-13.25.33-25.16-10.53-26.6-24.24l-10-95.15c-1.44-13.71,8.13-25.09,21.37-25.41l525.77-12.74c13.25-.32,25.16,10.54,26.61,24.24Z"/><path class="cls-12" d="M1182.16,1213.72c1.44,13.71-8.13,25.08-21.37,25.4L635,1251.86c-13.25.33-25.16-10.53-26.61-24.24l-10-95.16c-1.45-13.7,8.12-25.08,21.37-25.4l525.77-12.74c13.24-.32,25.16,10.53,26.6,24.24Z"/><path class="cls-13" d="M1069.57,796.65c2,14.47-6.7,26-19.31,25.76l-403.19-8c-12.6-.25-24.4-12.19-26.34-26.67L570,409.37c-1.94-14.49,6.71-26,19.32-25.76l403.19,8c12.61.25,24.4,12.19,26.34,26.68Z"/><path class="cls-14" d="M1074.62,788.32c2,14.48-6.71,26-19.31,25.77l-403.19-8c-12.61-.26-24.41-12.2-26.34-26.68L575.08,401c-1.94-14.48,6.71-26,19.32-25.76l403.19,8c12.61.25,24.4,12.19,26.34,26.68Z"/><path class="cls-15" d="M316.27,679.74l26.22,217.82C344,909.94,354.1,919.11,366.14,919l329.41-3.53c14.68-.16,26-13.86,23.88-28.91l-28.52-203c-1.47-10.45-9.87-18.23-20-18.55L338.37,654.56C325.19,654.14,314.64,666.17,316.27,679.74Z"/><path class="cls-9" d="M695.38,915.44,366,919c-12,.13-22.16-9-23.65-21.42L316.1,679.75a23,23,0,0,1,.57-8.43,22.84,22.84,0,0,0-3,14.37L339.88,903.5c1.49,12.38,11.61,21.55,23.65,21.42l329.41-3.54c11.19-.12,20.4-8.11,23.22-18.57A24.25,24.25,0,0,1,695.38,915.44Z"/><path class="cls-16" d="M659.24,999c2.77,13.5-5.93,24.44-19.42,24.44H513.07c-13.49,0-26.68-10.94-29.45-24.44l-2.19-10.69c-2.77-13.49,5.93-24.43,19.42-24.43H627.6c13.5,0,26.68,10.94,29.45,24.43Z"/><path class="cls-17" d="M663.72,995.44c2.76,13.49-5.93,24.43-19.42,24.43H517.55c-13.5,0-26.68-10.94-29.45-24.43l-2.19-10.69c-2.77-13.49,5.93-24.43,19.42-24.43H632.08c13.49,0,26.68,10.94,29.44,24.43Z"/><path class="cls-16" d="M1203.77,1198.08c2.27,13.53-6.73,24.79-20.11,25.15l-125.81,3.38c-13.39.36-26.11-10.32-28.39-23.86l-1.81-10.72c-2.28-13.53,6.73-24.8,20.12-25.16l125.8-3.37c13.4-.37,26.11,10.32,28.38,23.85Z"/><path class="cls-17" d="M1208.34,1194.36c2.27,13.54-6.73,24.8-20.13,25.16l-125.8,3.37c-13.39.36-26.1-10.32-28.38-23.85l-1.81-10.72c-2.28-13.54,6.72-24.8,20.12-25.16l125.8-3.38c13.39-.36,26.1,10.33,28.39,23.86Z"/><path class="cls-18" d="M1162.23,1045.55l-97.37,3.16A9.82,9.82,0,0,1,1055,1040l-12.85-93.49c-.86-6.3,3.91-12,10-11.9l98,1.33a9.83,9.83,0,0,1,9.47,8.7l12.23,89C1172.62,1039.78,1168.14,1045.36,1162.23,1045.55Z"/><line class="cls-19" x1="663.72" y1="995.44" x2="824.85" y2="995.44"/><line class="cls-19" x1="824.85" y1="995.44" x2="842.92" y2="1102.33"/><path class="cls-9" d="M832.89,993.66a8,8,0,1,1-8-8A8,8,0,0,1,832.89,993.66Z"/><path class="cls-9" d="M459.57,599.88a8,8,0,1,1-8-8A8,8,0,0,1,459.57,599.88Z"/><path class="cls-9" d="M741.54,424.42a8,8,0,1,1-8-8A8,8,0,0,1,741.54,424.42Z"/><path class="cls-9" d="M572,530.18a8,8,0,1,1-8-8A8,8,0,0,1,572,530.18Z"/><path class="cls-9" d="M993.75,469.1a8,8,0,1,1-8-8.05A8,8,0,0,1,993.75,469.1Z"/><path class="cls-9" d="M993.75,712.92a8,8,0,1,1-8-8A8,8,0,0,1,993.75,712.92Z"/><line class="cls-19" x1="314.8" y1="960.32" x2="377.16" y2="960.32"/><line class="cls-19" x1="377.16" y1="960.32" x2="424.5" y2="995.44"/><line class="cls-19" x1="424.5" y1="995.44" x2="387.85" y2="1033.36"/><line class="cls-19" x1="387.85" y1="1033.36" x2="322.56" y2="1036.8"/><circle class="cls-9" cx="423.71" cy="996.93" r="8.04"/><path class="cls-9" d="M322.84,962a8,8,0,1,1-8-8A8,8,0,0,1,322.84,962Z"/><circle class="cls-9" cx="322.56" cy="1036.8" r="8.04"/><line class="cls-19" x1="815.2" y1="854.14" x2="877.56" y2="854.14"/><line class="cls-19" x1="877.56" y1="854.14" x2="924.9" y2="889.27"/><line class="cls-19" x1="924.9" y1="889.27" x2="888.25" y2="927.19"/><line class="cls-19" x1="888.25" y1="927.19" x2="822.96" y2="930.63"/><path class="cls-9" d="M932.15,890.76a8,8,0,1,1-8-8A8,8,0,0,1,932.15,890.76Z"/><path class="cls-9" d="M823.25,855.8a8,8,0,1,1-8-8A8,8,0,0,1,823.25,855.8Z"/><path class="cls-9" d="M831,930.63a8,8,0,1,1-8-8A8,8,0,0,1,831,930.63Z"/><line class="cls-19" x1="431.75" y1="996.93" x2="483.19" y2="996.93"/><path class="cls-16" d="M1142.56,629c2,14.16-8.2,25.63-22.71,25.62S1092,643.12,1090,629s8.19-25.64,22.7-25.63S1140.58,614.83,1142.56,629Z"/><path class="cls-17" d="M1145.42,625.56c2,14.17-8.19,25.64-22.71,25.63s-27.88-11.51-29.85-25.68,8.19-25.64,22.71-25.63S1143.45,611.39,1145.42,625.56Z"/><line class="cls-20" x1="1106.66" y1="609.48" x2="1131.18" y2="641.38"/><line class="cls-20" x1="1127.15" y1="608.47" x2="1108.86" y2="641.74"/><polyline class="cls-20" points="502.38 980.3 525.67 990.09 504.67 1004.97"/><polyline class="cls-20" points="527.77 980.3 551.06 990.09 530.06 1004.97"/><polyline class="cls-20" points="553.27 980.3 576.56 990.09 555.56 1004.97"/><polyline class="cls-20" points="578.66 980.3 601.95 990.09 580.95 1004.97"/><polyline class="cls-20" points="601.95 980.3 625.24 990.09 604.24 1004.97"/><polyline class="cls-20" points="1144.64 1179 1167.93 1188.8 1146.93 1203.67"/><polyline class="cls-20" points="1167.93 1179 1191.22 1188.8 1170.22 1203.67"/><polyline class="cls-20" points="1096.99 1181.1 1120.28 1190.9 1099.28 1205.78"/><polyline class="cls-20" points="1120.28 1181.1 1143.57 1190.9 1122.57 1205.78"/><polyline class="cls-20" points="1048.69 1182.72 1071.98 1192.51 1050.98 1207.39"/><polyline class="cls-20" points="1071.98 1182.72 1095.27 1192.51 1074.27 1207.39"/><polyline class="cls-20" points="627.34 980.3 650.63 990.09 629.63 1004.97"/><g class="cls-21"><path class="cls-11" d="M525.68,817.68a5,5,0,0,1-5.14,5.5L395.89,824.4a6.22,6.22,0,0,1-6.23-5.38l-2.1-20.85a5,5,0,0,1,5.15-5.49l124.65-1.23a6.24,6.24,0,0,1,6.23,5.39Z"/><path class="cls-12" d="M528,816a5,5,0,0,1-5.14,5.49l-124.65,1.22a6.24,6.24,0,0,1-6.24-5.38l-2.09-20.85A5,5,0,0,1,395,791l124.65-1.22a6.23,6.23,0,0,1,6.23,5.39Z"/></g><g class="cls-21"><path class="cls-11" d="M530.94,858.43a5,5,0,0,1-5.14,5.5l-124.65,1.22a6.22,6.22,0,0,1-6.23-5.38l-2.1-20.85a5,5,0,0,1,5.15-5.49l124.65-1.22a6.22,6.22,0,0,1,6.23,5.38Z"/><path class="cls-12" d="M533.26,856.71a5,5,0,0,1-5.14,5.49l-124.65,1.22a6.24,6.24,0,0,1-6.24-5.38l-2.09-20.85a5,5,0,0,1,5.15-5.49l124.65-1.22a6.23,6.23,0,0,1,6.23,5.39Z"/></g><g class="cls-22"><path class="cls-23" d="M638.74,813c3.37,29.85-13.42,56.25-37.52,59s-46.36-19.26-49.73-49.11,13.42-56.25,37.51-59S635.36,783.13,638.74,813Z"/><path class="cls-9" d="M616.27,815.62c1.56,13.88-6.24,26.16-17.46,27.43s-21.57-9-23.13-22.85,6.24-26.17,17.45-27.43S614.69,801.73,616.27,815.62Z"/></g><polygon class="cls-9" points="590.31 806.2 607.24 815.24 591.97 828.73 590.31 806.2"/><polyline class="cls-24" points="373.38 682.9 387.54 772.99 470.31 772.99 456.62 682.9"/><path class="cls-9" d="M378,684.52c.36,3.18-1.42,6-4,6.28s-4.94-2-5.3-5.23,1.43-6,4-6.28S377.66,681.34,378,684.52Z"/><path class="cls-9" d="M460.87,684.52c.36,3.18-1.43,6-4,6.28s-4.94-2-5.3-5.23,1.43-6,4-6.28S460.51,681.34,460.87,684.52Z"/><path class="cls-9" d="M597.51,763.11c.36,3.18-1.43,6-4,6.28s-4.94-2-5.3-5.23,1.43-6,4-6.28S597.15,759.93,597.51,763.11Z"/><path class="cls-9" d="M588,690.3c.36,3.18-1.43,6-4,6.28s-4.94-2.05-5.3-5.23,1.43-6,4-6.28S587.6,687.12,588,690.3Z"/><path class="cls-9" d="M468.85,727.42c.36,3.18-1.43,6-4,6.28s-4.94-2.05-5.3-5.23,1.43-6,4-6.28S468.49,724.24,468.85,727.42Z"/><text class="cls-25" transform="matrix(0.99, 0, 0.14, 0.99, 398.33, 812.78)">login</text><text class="cls-25" transform="matrix(0.99, 0, 0.14, 0.99, 406.53, 856.3)">code</text><path class="cls-10" d="M471.19,902.71a2.62,2.62,0,0,1-1.61-.54L454.5,891l12.07-14.46a2.71,2.71,0,1,1,4.16,3.48l-8.39,10.05,10.46,7.76a2.7,2.7,0,0,1-1.61,4.88Z"/><line class="cls-24" x1="461.88" y1="727.94" x2="586.26" y2="732.06"/><line class="cls-24" x1="583.32" y1="690.83" x2="592.86" y2="761.54"/><path class="cls-6" d="M1186.49,958.66c-3.4-30-21.88-53.76-44.63-60.56l-9.43,57.83s-14.29-29.66-26.49-53.81c-20.71,11.69-33.47,39-30.07,69,4.29,37.84,32.52,65.72,63.06,62.26S1190.77,996.5,1186.49,958.66Z"/><path class="cls-12" d="M1156.91,966.66c2,17.6-7.91,33.17-22.12,34.78s-27.35-11.36-29.34-29,7.92-33.18,22.13-34.79S1154.92,949.05,1156.91,966.66Z"/><path class="cls-10" d="M1129,978.91l-10.25-10a2.21,2.21,0,1,1,3.08-3.16l6.81,6.63,12.13-14.76a2.21,2.21,0,1,1,3.41,2.8Z"/><path class="cls-26" d="M1086,849.7c3,.76,43.33,84.37,43.33,84.37l15.08-92.45s-8.91-7.2-27.49-5.93S1086,849.7,1086,849.7Z"/><line class="cls-19" x1="932.15" y1="889.14" x2="1089.75" y2="889.14"/><line class="cls-19" x1="1089.75" y1="889.14" x2="1098.39" y2="935.26"/><path class="cls-9" d="M1098.39,887.45a9.25,9.25,0,1,1-9.25-9.25A9.25,9.25,0,0,1,1098.39,887.45Z"/><path class="cls-7" d="M897.55,746.93c4.12,22.53-7,40.66-24.78,40.49s-35.58-18.59-39.69-41.12,7-40.66,24.79-40.49S893.44,724.39,897.55,746.93Z"/><path class="cls-9" d="M886.62,741.42l-24.76-18.95-18.18,17.79,6.86.1,5.1,21.79,29,.49-4.86-21.3ZM870,760.22c-2.93,0-6-3.4-6.69-7.56s1-7.49,4-7.45,6,3.39,6.7,7.56S872.93,760.25,870,760.22Z"/><text class="cls-27" transform="matrix(0.98, -0.04, 0.14, 0.99, 641.62, 1173.12)">Jvisoft Admin</text><text class="cls-27" transform="matrix(0.98, -0.04, 0.14, 0.99, 725.79, 1226.82)">Jvisoft Admin</text><polygon class="cls-19" points="733.5 672.53 661.87 548.48 733.5 424.43 876.74 424.43 948.36 548.48 876.74 672.53 733.5 672.53"/><polygon class="cls-19" points="661.87 548.48 807.16 539.34 733.5 424.43 454.5 598.14 661.87 548.48"/><polyline class="cls-19" points="451.53 603.01 578.62 650.82 596.92 564.03"/><polyline class="cls-19" points="807.16 539.34 951.35 550.03 952.11 548.48 985.71 469.1 810.46 538.05 733.5 672.53 598.77 563.59 561.39 531.59"/><polyline class="cls-19" points="948.36 549.81 985.71 701.09 985.71 469.1"/><polygon class="cls-19" points="985.71 712.92 876.74 672.53 971.1 651.18 985.71 654.54 1025.41 732.06 985.71 712.92"/><path class="cls-28" d="M862.47,535.94c4.28,37.84-17,71.32-47.56,74.77s-58.77-24.41-63.06-62.26,17-71.31,47.56-74.77S858.19,498.1,862.47,535.94Z"/><path class="cls-28" d="M828.83,535.54c1.83,16.22-7.3,30.57-20.39,32.05s-25.2-10.46-27-26.69,7.3-30.57,20.39-32S827,519.31,828.83,535.54Z"/><polyline class="cls-19" points="1060.92 732.06 1334.65 732.06 1452.24 848.68 1389.63 1007.4 1173.73 1011.95"/><path class="cls-9" d="M1465.35,847.06a11.52,11.52,0,1,1-11.52-11.52A11.51,11.51,0,0,1,1465.35,847.06Z"/><path class="cls-9" d="M1187,1012a11.52,11.52,0,1,1-11.52-11.52A11.52,11.52,0,0,1,1187,1012Z"/><path class="cls-9" d="M1072.44,732.06a11.52,11.52,0,1,1-11.52-11.52A11.52,11.52,0,0,1,1072.44,732.06Z"/><line class="cls-29" x1="1459.31" y1="848.17" x2="1552.78" y2="844.92"/><path class="cls-30" d="M1896.23,874.79c3.51,110.86-70.81,189.34-166,175.29s-175.26-115.31-178.78-226.17,70.81-189.34,166-175.3S1892.7,763.93,1896.23,874.79Z"/><path class="cls-31" d="M1808.33,856.18c2,33.18-1.95,64.9-7.75,96.16-.62,3.36-1.67,6.42-6.09,4.69-4-1.54-3.8-4.64-3.19-7.84,6.6-34.33,9.86-69.43,7.1-106C1795,798.82,1757,760,1712.57,755.83c-49.88-4.67-84,38.54-69.78,88.31a98.62,98.62,0,0,1,2.85,11.51c1.41,9-2.21,14.42-10.14,15.79a18.75,18.75,0,0,1-20.42-10.57A62.83,62.83,0,0,1,1609.7,845c-9.72-51.41,9-90.39,45.87-109.46,70.61-36.46,168.06,25.58,175.23,111.61a333.16,333.16,0,0,1-3.35,82.4c-.19,1.09,0,2.59-.71,3.17a36,36,0,0,1-5.26,3.27c-1.26-2.21-3.71-4.71-3.56-6.58.79-10.27,2.69-20.27,3.34-30.57,1.4-22.33,2.78-44.78-2.18-68-10.5-49-56-90-105.75-95.7s-91,25.56-96,72.79c-1.53,14.56-1.07,29.44,3.71,44.6.66,2.08,1.34,4.89,2.84,5.92,2.59,1.77,6.12,3.45,8.71,3.18,1.77-.18,3.89-3.69,3.64-5.83-.64-5.52-2.63-11.11-3.87-16.69-11.34-51,22.25-93.57,73.5-93.09,48.92.46,96.21,44.23,101.49,94C1807.92,845.46,1808,850.81,1808.33,856.18Z"/><path class="cls-31" d="M1789.75,859.5c.76,35.32-4.07,69-12.59,101.64-.61,2.3-2.58,4.92-4.7,5.47-3.3.84-5.52-3.44-4.59-8.11,3.17-15.86,7.49-31.43,9.06-47.71a505.45,505.45,0,0,0,2.43-64.94C1778.27,812,1749,782,1715.25,778.52c-33.51-3.48-58.37,20.44-56.13,54.26.51,7.46,1.59,15,2.76,22.52,4,26.07-2.79,37.44-26.69,43.8-3.51.93-7.07,2-10.79,2-1.84,0-4.09-2.31-6.16-3.57,1.06-1.79,1.6-4.58,3.25-5.17,5.58-2,11.72-2.84,17.34-4.74,10.9-3.67,16-11.74,14.61-24.15-.94-8.27-2.07-16.55-3.14-24.84-4.82-37.63,16.2-66.35,51-69.63,41.82-3.95,83.86,32.27,87.59,75.51C1789.29,849.55,1789.46,854.52,1789.75,859.5Z"/><path class="cls-31" d="M1766.49,861.13c3.77,36.94-1,71.09-18.1,101-1.14,2-2.41,3.92-3.59,5.89-1.66,2.78-3.75,5.3-7.62,2.44s-2.27-5.79-.53-8.48c16.18-25,22.65-54.08,21.81-86-.32-12-1.4-24.16-2.55-36.27-2-20.6-19.8-37.4-41-39-20.62-1.52-34.7,12.56-33.39,32.85.94,14.52,2.73,29.34,1.59,43.4-2.13,26.43-18.35,41.62-41.66,49.88-1.7.6-5.68-.72-6.85-2.29-2.25-3-.51-5.38,2.51-6.41.51-.17,1-.4,1.51-.58,26.17-9.82,37.8-29.95,36.05-59.41-.51-8.62-1.83-17.32-2.47-26-1.87-25,16.28-42.73,41.6-40.88,25.78,1.88,48.16,22.42,51.31,47.42C1766,846.2,1766,853.65,1766.49,861.13Z"/><path class="cls-31" d="M1703.71,856.91c.45,7.66,1.31,15.4,1.27,23-.07,15.07-4.49,28.33-13.94,38.51-8.08,8.72-17.44,16.21-26.3,24.19-2.31,2.07-5.21,3-8-.39s-.71-5.52,1.64-7.51C1666,928.22,1674,922,1681,914.89c10.76-10.95,15.56-25.17,14.63-42-.72-12.83-1.79-25.71-2.57-38.55-.89-15,9.12-24.83,23.82-23.5,15.05,1.37,26.51,13.31,28.5,28.52,3.41,26.06,3.82,51.41-2.49,75.46a123.65,123.65,0,0,1-24.41,48.33c-.67.82-1.37,1.6-2,2.41-2.08,2.46-4.5,4.49-8.07,1.08-3.33-3.18-1.44-5.6.52-7.84,12.8-14.64,21.24-32,25.84-51.7,5.31-22.85,4.44-46.82.83-71.27-1.21-8.26-9.17-14.87-18-15.61s-15.27,4.75-15.15,13.11c.06,4,.5,8,.75,12.08.24,3.83.45,7.66.68,11.49Z"/><path class="cls-31" d="M1715.87,858.19c-.45-7.65-1.18-15.35-1.16-22.92,0-1.8,2.46-3.17,3.79-4.74,1.75,1.67,5,3.54,5,5,.74,20.15,5.32,41,1.08,60.28-5.61,25.53-19.83,44.88-38.75,60.74-2.29,1.92-4.87,2.72-7.49-.33-2.91-3.38-1.13-5.66,1.22-7.63a109.48,109.48,0,0,0,33.3-47C1717.91,888,1717.21,873.22,1715.87,858.19Z"/><path class="cls-30" d="M1431.18,1113a34.18,34.18,0,1,0,34.17,34.18A34.18,34.18,0,0,0,1431.18,1113Zm.22,55.5a22.64,22.64,0,1,1,22.63-22.64A22.63,22.63,0,0,1,1431.4,1168.5Z"/><path class="cls-30" d="M268.27,341.1a34.18,34.18,0,1,0,34.18,34.18A34.18,34.18,0,0,0,268.27,341.1Zm.22,55.5A22.64,22.64,0,1,1,291.13,374,22.64,22.64,0,0,1,268.49,396.6Z"/><path class="cls-30" d="M306.76,1535a34.18,34.18,0,1,0,34.18,34.17A34.17,34.17,0,0,0,306.76,1535Zm.22,55.5a22.64,22.64,0,1,1,22.64-22.64A22.64,22.64,0,0,1,307,1590.52Z"/><rect class="cls-6" x="57" y="1228" width="41" height="13" rx="6.37"/><rect class="cls-6" x="116" y="1228" width="41" height="13" rx="6.37"/><rect class="cls-6" x="101" y="1185" width="13" height="41" rx="6.37"/><rect class="cls-6" x="101" y="1244" width="13" height="41" rx="6.37"/><rect class="cls-6" x="1392" y="664" width="41" height="13" rx="6.37"/><rect class="cls-6" x="1451" y="664" width="41" height="13" rx="6.37"/><rect class="cls-6" x="1436" y="621" width="13" height="41" rx="6.37"/><rect class="cls-6" x="1436" y="680" width="13" height="41" rx="6.37"/><g class="cls-32"><polygon class="cls-33" points="1925.78 774.38 1925.6 789.21 1482.3 791.16 1482.48 776.34 1925.78 774.38"/></g><path class="cls-34" d="M1663.67,1037s-132.61-75.91-125.11-234.9l357.79-10.94s45.69,180.69-50.3,232.31C1787,1064.33,1735,1063,1663.67,1037Z"/></g></g></svg>