<svg width="1920" height="80" xmlns="http://www.w3.org/2000/svg">
 <!-- Created with Method Draw - http://github.com/duopixel/Method-Draw/ -->
 <g>
  <title>background</title>
  <rect fill="#1d2536" id="canvas_background" height="82" width="1922" y="-1" x="-1"/>
  <g display="none" overflow="visible" y="0" x="0" height="100%" width="100%" id="canvasGrid">
   <rect fill="url(#gridpattern)" stroke-width="0" y="0" x="0" height="100%" width="100%"/>
  </g>
 </g>
 <g>
  <title>Layer 1</title>
  <line stroke-linecap="undefined" stroke-linejoin="undefined" id="svg_1" y2="40" x2="1920" y1="40" x1="1149" stroke-width="2" stroke="#37579c" fill="none"/>
  <line stroke-linecap="undefined" stroke-linejoin="undefined" id="svg_6" y2="78.68374" x2="805" y1="40" x1="770" fill-opacity="null" stroke-width="2" stroke="#355396" fill="none"/>
  <line stroke-linecap="undefined" stroke-linejoin="undefined" id="svg_7" y2="79" x2="1113" y1="78.190655" x1="804" fill-opacity="null" stroke-width="2" stroke="#37579e" fill="none"/>
  <line stroke-linecap="undefined" stroke-linejoin="undefined" id="svg_8" y2="79" x2="1112" y1="40.027144" x1="1150" fill-opacity="null" stroke-width="2" stroke="#37579e" fill="none"/>
  <line stroke-linecap="undefined" stroke-linejoin="undefined" id="svg_10" y2="40" x2="771" y1="40" x1="0" fill-opacity="null" stroke-width="2" stroke="#37579e" fill="none"/>
  <line stroke-linecap="undefined" stroke-linejoin="undefined" id="svg_16" y2="40" x2="1920" y1="40" x1="1149" stroke-width="2" stroke="#37579e" fill="none"/>
  <line stroke-linecap="null" stroke-linejoin="null" id="svg_24" y2="19" x2="1920" y1="19" x1="0" fill-opacity="null" stroke-opacity="null" stroke-width="40" stroke="#2b365d" fill="none"/>
  <line stroke="#2b365d" stroke-linecap="null" stroke-linejoin="null" id="svg_30" y2="57.54521" x2="1112" y1="57.54521" x1="804" fill-opacity="null" stroke-width="40" fill="none"/>
  <path transform="rotate(-177 790.081787109375,50.281143188476555) " stroke="#2b365d" id="svg_36" d="m781.446388,58.61328l0,-16.664275l16.664275,16.664275l-16.664275,0z" fill-opacity="null" stroke-opacity="null" stroke-width="15" fill="none"/>
  <path transform="rotate(89 1131.7579345703125,28.941196441650366) " id="svg_37" d="m1131.012882,29.686195l0,-1.49l1.49,1.49l-1.49,0z" fill-opacity="null" stroke-opacity="null" stroke-width="40" stroke="#2b365d" fill="none"/>
  <line transform="rotate(0.10000000149011612 1056.4999999999818,77.06178283698789) " stroke="#2b365d" stroke-linecap="null" stroke-linejoin="null" id="svg_41" y2="77.061786" x2="1113" y1="77.061786" x1="1000" fill-opacity="null" stroke-opacity="null" stroke-width="2" fill="none"/>
 </g>
</svg>
