<svg width="1920" height="80.00000000000001" xmlns="http://www.w3.org/2000/svg">
 <!-- Created with Method Draw - http://github.com/duopixel/Method-Draw/ -->
 <g>
  <title>background</title>
  <rect fill="#1d2536" id="canvas_background" height="82" width="1922" y="-1" x="-1"/>
  <g display="none" overflow="visible" y="0" x="0" height="100%" width="100%" id="canvasGrid">
   <rect fill="url(#gridpattern)" stroke-width="0" y="0" x="0" height="100%" width="100%"/>
  </g>
 </g>
 <g>
  <title>Layer 1</title>
  <line stroke-linecap="undefined" stroke-linejoin="undefined" id="svg_1" y2="40" x2="1920" y1="40" x1="1109" stroke-width="2" stroke="#37579c" fill="none"/>
  <line stroke-linecap="undefined" stroke-linejoin="undefined" id="svg_6" y2="78.68374" x2="844.93708" y1="40" x1="809.902949" fill-opacity="null" stroke-width="2" stroke="#355396" fill="none"/>
  <line stroke-linecap="undefined" stroke-linejoin="undefined" id="svg_7" y2="79" x2="1073" y1="78.190655" x1="844" fill-opacity="null" stroke-width="2" stroke="#37579e" fill="none"/>
  <line stroke-linecap="undefined" stroke-linejoin="undefined" id="svg_8" y2="79" x2="1072.082539" y1="40.027144" x1="1110.173688" fill-opacity="null" stroke-width="2" stroke="#37579e" fill="none"/>
  <line stroke-linecap="undefined" stroke-linejoin="undefined" id="svg_10" y2="40" x2="811" y1="40" x1="0" fill-opacity="null" stroke-width="2" stroke="#37579e" fill="none"/>
  <line stroke-linecap="undefined" stroke-linejoin="undefined" id="svg_16" y2="40" x2="1920" y1="40" x1="1109" stroke-width="2" stroke="#37579e" fill="none"/>
  <line stroke-linecap="null" stroke-linejoin="null" id="svg_24" y2="19" x2="1920" y1="19" x1="0" fill-opacity="null" stroke-opacity="null" stroke-width="40" stroke="#2b365d" fill="none"/>
  <line stroke="#2b365d" stroke-linecap="null" stroke-linejoin="null" id="svg_30" y2="57.54521" x2="1072.242833" y1="57.54521" x1="845.116193" fill-opacity="null" stroke-width="40" fill="none"/>
  <path transform="rotate(-177 830.68798828125,50.281143188476555) " stroke="#2b365d" id="svg_36" d="m822.355896,58.61328l0,-16.664275l16.664275,16.664275l-16.664275,0z" fill-opacity="null" stroke-opacity="null" stroke-width="15" fill="none"/>
  <path transform="rotate(89 1091.9930419921873,28.941196441650483) " id="svg_37" d="m1091.247989,29.686195l0,-1.49l1.49,1.49l-1.49,0z" fill-opacity="null" stroke-opacity="null" stroke-width="40" stroke="#2b365d" fill="none"/>
  <line transform="rotate(0.10000000149011612 1028.3190917968768,77.06178283686698) " stroke="#2b365d" stroke-linecap="null" stroke-linejoin="null" id="svg_41" y2="77.061786" x2="984.82327" y1="77.061786" x1="1071.814847" fill-opacity="null" stroke-opacity="null" stroke-width="2" fill="none"/>
 </g>
</svg>
